<?xml version="1.0" standalone="no"?>
<!DOCTYPE svg PUBLIC "-//W3C//DTD SVG 20010904//EN"
 "http://www.w3.org/TR/2001/REC-SVG-20010904/DTD/svg10.dtd">
<svg version="1.0" xmlns="http://www.w3.org/2000/svg"
 width="300.000000pt" height="300.000000pt" viewBox="0 0 300.000000 300.000000"
 preserveAspectRatio="xMidYMid meet">
<metadata>
Created by potrace 1.15, written by Peter Selinger 2001-2017
</metadata>
<g transform="translate(0.000000,300.000000) scale(0.100000,-0.100000)"
fill="#000000" stroke="none">
<path d="M885 2614 c-330 -190 -610 -355 -622 -367 l-23 -20 0 -712 0 -712 23
-20 c31 -30 1218 -713 1237 -713 19 0 1206 683 1238 713 l22 20 0 712 0 712
-22 20 c-32 30 -1219 713 -1238 713 -9 0 -286 -156 -615 -346z m1166 -155
l539 -311 0 -633 0 -633 -539 -311 c-296 -171 -544 -311 -551 -311 -7 0 -255
140 -551 311 l-539 311 0 633 0 633 538 311 c295 171 543 311 551 311 7 0 256
-140 552 -311z"/>
<path d="M1393 2370 c-350 -49 -632 -303 -725 -652 -31 -117 -31 -299 0 -416
84 -316 318 -551 632 -633 120 -32 300 -32 420 0 314 82 548 317 632 633 31
117 31 299 -1 418 -81 311 -318 549 -625 629 -89 24 -245 33 -333 21z m282
-196 c108 -25 216 -87 307 -174 l83 -78 -40 -41 c-21 -23 -43 -41 -48 -41 -5
0 -42 30 -81 68 -115 108 -238 157 -396 156 -97 -1 -148 -13 -237 -57 -108
-52 -231 -182 -265 -278 l-11 -31 354 -354 c396 -397 357 -371 457 -311 106
63 220 211 247 320 l7 27 -146 0 -146 0 0 65 0 65 218 0 218 0 -7 -73 c-24
-251 -203 -478 -447 -567 l-79 -29 -411 412 -411 412 29 78 c121 328 464 512
805 431z m-213 -1342 c-97 -7 -289 66 -389 150 -136 114 -227 281 -240 443
l-6 70 337 -330 337 -330 -39 -3z"/>
</g>
</svg>
